<?xml version="1.0" standalone="no"?>
<!DOCTYPE svg PUBLIC "-//W3C//DTD SVG 20010904//EN"
 "http://www.w3.org/TR/2001/REC-SVG-20010904/DTD/svg10.dtd">
<svg version="1.0" xmlns="http://www.w3.org/2000/svg"
 width="1333.000000pt" height="1374.000000pt" viewBox="0 0 1333.000000 1374.000000"
 preserveAspectRatio="xMidYMid meet">

<g transform="translate(0.000000,1374.000000) scale(0.100000,-0.100000)"
fill="#000000" stroke="none">
<path d="M5928 12573 c-483 -279 -878 -510 -878 -513 0 -3 184 -103 410 -222
l409 -217 104 19 c860 155 1791 -10 2423 -429 599 -397 866 -952 724 -1505
-167 -654 -891 -1184 -1849 -1356 -372 -66 -805 -71 -1201 -14 -204 29 -471
97 -667 169 -147 54 -424 194 -543 273 -389 260 -632 571 -727 929 -38 143
-44 375 -13 522 11 57 20 104 18 106 -43 30 -1026 638 -1033 638 -9 0 -1650
-996 -1667 -1012 -9 -8 5289 -3065 5311 -3065 9 0 1215 689 2681 1530 1466
842 2673 1535 2682 1540 14 8 -525 327 -2636 1562 -1459 854 -2657 1552 -2662
1552 -5 -1 -404 -229 -886 -507z"/>
<path d="M5000 11408 l1 -603 356 -205 c195 -113 378 -218 404 -233 l49 -29 0
624 0 624 -401 212 c-220 117 -402 212 -405 212 -2 0 -4 -271 -4 -602z"/>
<path d="M6430 11613 c-100 -6 -344 -34 -440 -51 l-95 -17 -3 -592 c-1 -326 2
-593 6 -593 5 0 73 11 153 24 79 14 208 30 287 37 182 15 614 6 771 -16 557
-78 1023 -254 1386 -524 124 -93 298 -261 376 -364 l59 -79 40 84 c234 500 78
1061 -408 1468 -516 433 -1324 669 -2132 623z"/>
<path d="M9490 8365 c-1471 -844 -2678 -1539 -2682 -1543 -4 -4 -7 -1389 -6
-3078 l3 -3070 2665 1516 2665 1516 -3 1019 c-2 561 -5 1021 -7 1023 -1 2
-178 -107 -392 -243 -372 -235 -389 -247 -405 -288 -9 -23 -42 -107 -74 -187
-368 -938 -1150 -1716 -1928 -1920 -171 -44 -248 -54 -416 -54 -174 0 -277 16
-418 65 -420 147 -722 523 -831 1034 -35 162 -45 276 -45 480 2 623 215 1270
615 1860 131 194 245 332 424 511 234 235 446 396 695 527 616 324 1250 298
1646 -66 54 -50 79 -67 92 -62 9 3 254 133 543 288 l526 281 6 960 c4 528 5
961 3 963 -1 1 -1206 -688 -2676 -1532z"/>
<path d="M3272 7409 c-310 -40 -601 -220 -780 -482 -518 -757 -275 -2117 556
-3109 36 -43 69 -78 74 -78 7 0 1001 573 1016 585 2 2 -38 52 -88 111 -281
336 -515 753 -654 1167 -121 360 -175 701 -163 1042 9 261 44 445 122 647 54
138 53 128 14 127 -19 -1 -62 -5 -97 -10z"/>
<path d="M10670 6185 c-220 -128 -403 -235 -406 -238 -8 -7 1066 -619 1080
-615 18 5 766 480 766 487 0 3 -234 139 -520 302 l-519 297 -401 -233z"/>
<path d="M10195 5763 c-121 -347 -326 -717 -571 -1033 -106 -137 -342 -381
-474 -492 -227 -191 -457 -331 -702 -429 -127 -50 -338 -105 -441 -115 -42 -4
-77 -10 -77 -15 0 -4 28 -45 62 -91 169 -229 394 -373 678 -434 126 -27 378
-25 520 5 745 157 1470 797 1892 1671 77 160 188 444 177 454 -6 5 -1020 586
-1023 586 -2 0 -20 -48 -41 -107z"/>
<path d="M3665 3961 l-510 -298 3 -94 c8 -239 31 -771 34 -774 2 -2 225 126
496 283 l492 287 0 447 c0 247 -1 448 -2 447 -2 0 -232 -135 -513 -298z"/>
</g>
</svg>
